<?xml version="1.0" encoding="UTF-8"?>
<!DOCTYPE svg PUBLIC "-//W3C//DTD SVG 1.1//EN" "http://www.w3.org/Graphics/SVG/1.1/DTD/svg11.dtd">
<svg xmlns="http://www.w3.org/2000/svg" version="1.1" width="300px" height="94px" style="shape-rendering:geometricPrecision; text-rendering:geometricPrecision; image-rendering:optimizeQuality; fill-rule:evenodd; clip-rule:evenodd" xmlns:xlink="http://www.w3.org/1999/xlink">
<g><path style="opacity:1" fill="#030000" d="M -0.5,-0.5 C 99.5,-0.5 199.5,-0.5 299.5,-0.5C 299.5,30.8333 299.5,62.1667 299.5,93.5C 199.5,93.5 99.5,93.5 -0.5,93.5C -0.5,62.1667 -0.5,30.8333 -0.5,-0.5 Z"/></g>
<g><path style="opacity:1" fill="#a70001" d="M 56.5,19.5 C 56.5,19.1667 56.5,18.8333 56.5,18.5C 65.1667,18.5 73.8333,18.5 82.5,18.5C 82.8064,21.3854 82.4731,24.0521 81.5,26.5C 81.5,24.1667 81.5,21.8333 81.5,19.5C 73.1667,19.5 64.8333,19.5 56.5,19.5 Z"/></g>
<g><path style="opacity:1" fill="#8e0002" d="M 172.5,26.5 C 177.305,25.5128 182.305,25.1795 187.5,25.5C 187.5,23.5 187.5,21.5 187.5,19.5C 179.5,19.5 171.5,19.5 163.5,19.5C 163.5,36.1667 163.5,52.8333 163.5,69.5C 162.503,52.6749 162.17,35.6749 162.5,18.5C 171.167,18.5 179.833,18.5 188.5,18.5C 188.5,21.1667 188.5,23.8333 188.5,26.5C 183.167,26.5 177.833,26.5 172.5,26.5 Z"/></g>
<g><path style="opacity:1" fill="#c80000" d="M 28.5,19.5 C 24.8333,19.5 21.1667,19.5 17.5,19.5C 17.5,39.1667 17.5,58.8333 17.5,78.5C 18.5,78.5 19.5,78.5 20.5,78.5C 19.4324,79.4345 18.099,79.7678 16.5,79.5C 16.5,59.1667 16.5,38.8333 16.5,18.5C 20.7016,18.1832 24.7016,18.5166 28.5,19.5 Z"/></g>
<g><path style="opacity:1" fill="#fb0000" d="M 38.5,18.5 C 41.1667,18.5 43.8333,18.5 46.5,18.5C 46.5,37.5 46.5,56.5 46.5,75.5C 43.1667,75.8333 39.8333,76.1667 36.5,76.5C 33.379,63.7992 30.0456,51.1326 26.5,38.5C 26.6309,37.6236 26.2975,36.9569 25.5,36.5C 24.5008,50.4841 24.1674,64.4841 24.5,78.5C 23.1667,78.5 21.8333,78.5 20.5,78.5C 19.5,78.5 18.5,78.5 17.5,78.5C 17.5,58.8333 17.5,39.1667 17.5,19.5C 21.1667,19.5 24.8333,19.5 28.5,19.5C 31.7329,28.5482 34.3996,37.8815 36.5,47.5C 37.0899,48.766 37.5899,50.0993 38,51.5C 38.4998,40.505 38.6665,29.505 38.5,18.5 Z"/></g>
<g><path style="opacity:1" fill="#f90000" d="M 56.5,19.5 C 64.8333,19.5 73.1667,19.5 81.5,19.5C 81.5,21.8333 81.5,24.1667 81.5,26.5C 76.1667,26.5 70.8333,26.5 65.5,26.5C 65.5,31.5 65.5,36.5 65.5,41.5C 69.8333,41.5 74.1667,41.5 78.5,41.5C 78.5,44.1667 78.5,46.8333 78.5,49.5C 74.1667,49.5 69.8333,49.5 65.5,49.5C 65.5,54.5 65.5,59.5 65.5,64.5C 69.1667,64.5 72.8333,64.5 76.5,64.5C 78.1667,64.5 79.8333,64.5 81.5,64.5C 81.5,66.8333 81.5,69.1667 81.5,71.5C 74.7211,72.9833 67.7211,73.65 60.5,73.5C 59.1667,73.5 57.8333,73.5 56.5,73.5C 56.5,55.5 56.5,37.5 56.5,19.5 Z"/></g>
<g><path style="opacity:1" fill="#f40000" d="M 89.5,18.5 C 92.7766,18.2161 95.9433,18.5495 99,19.5C 101.075,25.3109 103.408,30.9776 106,36.5C 108.057,30.7192 110.39,25.0526 113,19.5C 115.719,18.5562 118.552,18.2229 121.5,18.5C 118.706,26.8797 115.706,35.2131 112.5,43.5C 115.553,51.941 118.887,60.2744 122.5,68.5C 118.955,69.7914 115.455,69.7914 112,68.5C 109.863,62.4213 107.529,56.4213 105,50.5C 101.812,56.8973 99.3116,63.564 97.5,70.5C 94.4824,70.7038 91.4824,71.0371 88.5,71.5C 91.2586,61.9785 94.5919,52.6451 98.5,43.5C 95.2041,35.2478 92.2041,26.9145 89.5,18.5 Z"/></g>
<g><path style="opacity:1" fill="#fa0000" d="M 156.5,19.5 C 156.5,21.8333 156.5,24.1667 156.5,26.5C 153.167,26.5 149.833,26.5 146.5,26.5C 146.5,40.5 146.5,54.5 146.5,68.5C 143.5,68.5 140.5,68.5 137.5,68.5C 137.5,54.1667 137.5,39.8333 137.5,25.5C 134.167,25.5 130.833,25.5 127.5,25.5C 127.5,23.5 127.5,21.5 127.5,19.5C 137.167,19.5 146.833,19.5 156.5,19.5 Z"/></g>
<g><path style="opacity:1" fill="#fc0000" d="M 172.5,26.5 C 172.5,31.5 172.5,36.5 172.5,41.5C 176.5,41.5 180.5,41.5 184.5,41.5C 184.5,43.8333 184.5,46.1667 184.5,48.5C 180.5,48.5 176.5,48.5 172.5,48.5C 172.5,55.5 172.5,62.5 172.5,69.5C 169.5,69.5 166.5,69.5 163.5,69.5C 163.5,52.8333 163.5,36.1667 163.5,19.5C 171.5,19.5 179.5,19.5 187.5,19.5C 187.5,21.5 187.5,23.5 187.5,25.5C 182.305,25.1795 177.305,25.5128 172.5,26.5 Z"/></g>
<g><path style="opacity:1" fill="#fb0000" d="M 195.5,18.5 C 198.5,18.5 201.5,18.5 204.5,18.5C 204.5,35.8333 204.5,53.1667 204.5,70.5C 201.5,70.5 198.5,70.5 195.5,70.5C 195.5,53.1667 195.5,35.8333 195.5,18.5 Z"/></g>
<g><path style="opacity:1" fill="#f90000" d="M 214.5,18.5 C 217.5,18.5 220.5,18.5 223.5,18.5C 223.5,33.8333 223.5,49.1667 223.5,64.5C 228.862,64.4724 234.195,64.8058 239.5,65.5C 239.5,68.1667 239.5,70.8333 239.5,73.5C 231.147,72.9573 222.813,72.2906 214.5,71.5C 214.5,53.8333 214.5,36.1667 214.5,18.5 Z"/></g>
<g><path style="opacity:1" fill="#f70000" d="M 255.5,40.5 C 255.688,38.8967 255.188,37.5634 254,36.5C 254.151,49.5396 253.318,62.2063 251.5,74.5C 249.833,74.5 248.167,74.5 246.5,74.5C 246.5,56.1667 246.5,37.8333 246.5,19.5C 250.931,19.2307 255.265,19.564 259.5,20.5C 261.448,32.8532 263.615,45.1866 266,57.5C 267.999,44.8384 269.999,32.1717 272,19.5C 276.401,18.5333 280.901,18.2 285.5,18.5C 285.5,38.8333 285.5,59.1667 285.5,79.5C 282.455,79.4921 279.455,79.1587 276.5,78.5C 277.859,28.5306 275.859,28.1972 270.5,77.5C 267.164,77.533 263.997,76.8664 261,75.5C 259.381,63.7846 257.547,52.1179 255.5,40.5 Z"/></g>
<g><path style="opacity:1" fill="#860001" d="M 156.5,19.5 C 146.833,19.5 137.167,19.5 127.5,19.5C 127.5,21.5 127.5,23.5 127.5,25.5C 130.833,25.5 134.167,25.5 137.5,25.5C 137.5,39.8333 137.5,54.1667 137.5,68.5C 140.5,68.5 143.5,68.5 146.5,68.5C 143.375,69.4794 140.042,69.8128 136.5,69.5C 136.5,55.1667 136.5,40.8333 136.5,26.5C 133.167,26.5 129.833,26.5 126.5,26.5C 126.5,23.8333 126.5,21.1667 126.5,18.5C 136.681,18.1726 146.681,18.506 156.5,19.5 Z"/></g>
<g><path style="opacity:1" fill="#350000" d="M 38.5,18.5 C 38.6665,29.505 38.4998,40.505 38,51.5C 37.5899,50.0993 37.0899,48.766 36.5,47.5C 37.1667,37.8333 37.8333,28.1667 38.5,18.5 Z"/></g>
<g><path style="opacity:1" fill="#c20000" d="M 26.5,38.5 C 25.8333,51.8333 25.1667,65.1667 24.5,78.5C 24.1674,64.4841 24.5008,50.4841 25.5,36.5C 26.2975,36.9569 26.6309,37.6236 26.5,38.5 Z"/></g>
<g><path style="opacity:1" fill="#920000" d="M 259.5,20.5 C 255.265,19.564 250.931,19.2307 246.5,19.5C 246.5,37.8333 246.5,56.1667 246.5,74.5C 245.503,56.0075 245.17,37.3408 245.5,18.5C 250.619,17.8969 255.285,18.5636 259.5,20.5 Z"/></g>
<g><path style="opacity:1" fill="#760000" d="M 56.5,18.5 C 56.5,18.8333 56.5,19.1667 56.5,19.5C 56.5,37.5 56.5,55.5 56.5,73.5C 57.8333,73.5 59.1667,73.5 60.5,73.5C 59.0813,74.4511 57.4147,74.7845 55.5,74.5C 55.1698,55.6592 55.5031,36.9925 56.5,18.5 Z"/></g>
<g><path style="opacity:1" fill="#b40000" d="M 255.5,40.5 C 254.505,51.988 254.172,63.6547 254.5,75.5C 253.209,75.7373 252.209,75.404 251.5,74.5C 253.318,62.2063 254.151,49.5396 254,36.5C 255.188,37.5634 255.688,38.8967 255.5,40.5 Z"/></g>
<g><path style="opacity:1" fill="#540000" d="M 76.5,64.5 C 78.2646,63.5386 80.2646,63.2053 82.5,63.5C 82.8064,66.3854 82.4731,69.0521 81.5,71.5C 81.5,69.1667 81.5,66.8333 81.5,64.5C 79.8333,64.5 78.1667,64.5 76.5,64.5 Z"/></g>
</svg>
